<?xml version="1.0" encoding="UTF-8" standalone="no"?>
<svg xmlns="http://www.w3.org/2000/svg" width="410" height="390">
 <path d="m190 382c-1.3-1-2.6-4-5.7-14l-4.1-12-2.6-1c-1.5 0-5.5 0-9.1-1-20.4-2-43.9-9-62-19.7-43.8-24-75-66-86-115-3.1-13.7-3.9-21.6-3.9-37.8 0-19.6 1.8-32.4 6.8-49 1-3.5 1.8-6.6 1.6-6.8-.2-.1-4.8.5-10.1 1.4-10.2 1.9-11.6 1.7-11.6-.9 0-1.4 9.5-23.9 10.6-25 .4-.5 6.3-2.1 13.2-3.6l12.4-2.7 3.6-5.9c9.1-14.6 25.3-32.8 38.5-43 26-20.7 58.9-34 91-37 11.3-1.2 34.8-.5 45 1.3 24.8 4.2 47.7 13 67.9 26.4l5.4 3.6 57-12.6c53-11.6 57-12.4 58-11.4 1 1 .9 2.4-1.6 21-1.7 13-2.9 20.5-3.5 21-.5.4-17.6 3.7-38 7.3-20.4 3.6-37 6.7-37 6.9-.2.1 1 2 2.6 4 15 19.6 26.8 45 31.8 69 2.9 14 3.3 18.3 3.3 36.9 0 16.6-.2 18.5-1.9 28-3.1 17.7-7.7 31.8-15.6 47.9-8.9 18.3-18.2 31-33 46-25.5 25.6-56 41-91 48-5 1-9.3 2-9.5 2-.3 0-3 6-6 13-3.2 7-6.3 13-7.2 13-2.1 2-5.9 2-8.2 1" fill="#fff"/>
 <path d="m190 382c-1.3-1-2.6-4-5.7-14l-4.1-12-2.6-1c-1.5 0-5.5 0-9.1-1-20.4-2-43.9-9-62-19.7-43.8-24-75-66-86-115-3.1-13.7-3.9-21.6-3.9-37.8 0-19.6 1.8-32.4 6.8-49 1.1-3.5 1.8-6.6 1.6-6.8-.2-.1-4.7.5-10.1 1.4-10.2 1.9-11.6 1.7-11.6-.9 0-1.4 9.5-23.9 10.6-25 .4-.5 6.3-2.1 13.2-3.6l12.4-2.7 3.6-5.9c9.1-14.6 25.3-32.8 38.5-43 26-20.7 58.9-34 91-37 11.3-1.2 34.8-.5 45 1.3 24.8 4.2 47.7 13 67.9 26.4l5.4 3.6 57-12.6c53-11.6 57-12.4 58-11.4 1 1 .9 2.4-1.6 21-1.7 13-2.9 20.5-3.5 21-.5.4-17.6 3.7-38 7.3-20.4 3.6-37 6.7-37 6.9-.2.1 1 2 2.6 4 15 19.6 26.8 45 31.8 69 2.9 14 3.3 18.3 3.3 36.9 0 16.6-.2 18.5-1.9 28-3.1 17.7-7.7 31.8-15.6 47.9-8.9 18.3-18.2 31-33 46-25.5 25.6-56 41-91 48-5 1-9.3 2-9.5 2-.3 0-3 6-6 13-3.2 7-6.3 13-7.2 13-2.1 2-5.9 2-8.2 1m59-122c29.7-65 54-119 54-119 .1-.2-4.4-.4-10-.4h-10.3l-14.5 31.8-14.5 31.9h-12.4c-7.5.1-12.4 0-12.4-.4 0-.3 6.1-14.2 13.5-30.8 7.5-16.6 13.8-30.8 14-31.5.4-1.1-.1-1.2-9.8-1l-10 .2-18 40c-13 28.8-17.9 40-17.5 41 .5.9 4 1.1 22.3 1.3l21.7.4-23.8 52c-13 28.8-24 52.8-24.4 53-.4.7-3.8-8.6-11-30.4-5.8-17.2-10.7-31.6-10.9-32-.2-.6 4.2-.8 19.9-.9l20.3-.2 3.7-8.4c2.1-4.6 3.7-8.8 3.8-9.2 0-.7-7.5-.8-36.4-.7-35.9.2-36.4.2-36.5 1.5-.2 1.4 42 127 43 129 .4 0 1 0 1.5 0 .4 0 24.4-51.6 54.6-118zm-73 83c-1.4-4-3-7.1-3.4-7.4-.5-.3-1.7-.5-2.8-.6-4 0-20.5-3.8-29.5-6.8-10.9-3.6-26.6-11.3-35.8-17.4-31.8-21-55-54-64-90-7.8-31-6.4-61 4-90 1.5-4 2.8-7.8 3-8.3.3-1-.4-1-7 .2-4 .7-7.9 1.5-8.7 1.8-1.1.4-1.9 2.3-3.7 8.5-8.8 29.6-9.5 60.9-2 91 15.5 61.8 66 111 129 124 6.9 2 17.9 3 21.8 3l2.4 1-2.5-8m49 4c24-5 50-17 71-33 33.8-27.3 55-64.9 61.9-109 1.5-10 1.5-35 0-45.8-3.2-21.7-10.3-42.5-20.6-60.7-4.7-8.1-13.7-21-16.4-23.7l-1.5-1.4-8.3 1.4c-4.6.8-8.4 1.6-8.6 1.7-.1.1 1.3 1.9 3.2 3.9 15 16.4 27.6 40 33.6 63.8 6 23.4 6.3 48.9 1 73-12.2 54-54 99-107 114-4.2 1.2-8.5 2.4-9.5 2.6-1.6.4-2.3 1.4-5 7.3-1.7 4-3.3 7-3.6 8-.5 2-.7 2 10.7-1m-98-180c13.7-30.6 24.7-55.7 24.3-55.8-.4-.1-5.5.6-11.4 1.6l-10.6 1.8-24 53.7c-13.3 29.5-24 53.9-24 54 0 .3 4.7.5 10.5.4l10.5-.2 25-56m40.9-3.5c14.6-32.5 26.4-59 26-59-.4-.4-21.9 3.3-22.4 4-.6.7-50.6 112-51 114-.3 1.1.4 1.1 10 1l10.5-.2 26.6-59m13.4 58c6.4-13.8 56-124 56-124-.4-.4-21.9 3.5-22.5 4-.7.8-54 120-54 121 0 .5 3.7.7 10.2.7h10.3l.8-1.8m20.9-133c105-18.7 192-34 193-34.5 1.6-.5 1.7-.8 3.7-16.3 1.1-8.7 1.9-15.9 1.8-16-.5-.5-383 83-384 84-.6.6-1.9 3.5-6.5 14.5-.5 1.2-.7 2.1-.5 2.1.2 0 87-15.3 192-33.9m-145 2.6c9.5-2.1 9.7-2.2 11.6-4.7 25-31.6 61-52 102-57 10.3-1.3 28.9-1.3 39.6.1 15.5 2 34.4 7.6 47.8 14.4l5.2 2.6 10.3-2.3c5.6-1.2 10.5-2.3 10.9-2.4.7-.2-11.7-7.7-18-10.9-16-8.1-34-13.6-53-16.4-10.5-1.6-35.7-1.6-45.8-.1-40 6.2-74 23.6-101 52.9-8.4 8.9-21.4 26.5-19.5 26.5.5 0 5.2-1 10.5-2.2" fill="#3b305f"/>
</svg>
